<mxfile host="app.diagrams.net" modified="2023-12-23T10:21:57.559Z" agent="Mozilla/5.0 (Windows NT 10.0; Win64; x64) AppleWebKit/537.36 (KHTML, like Gecko) Chrome/120.0.0.0 Safari/537.36" etag="zGa9i_Ho8lP_VKd4XBnU" version="22.1.11" type="device">
  <diagram name="Page-1" id="nVAuIkVdtz75BhzgI3Mr">
    <mxGraphModel dx="4620" dy="3060" grid="1" gridSize="11" guides="1" tooltips="1" connect="1" arrows="1" fold="1" page="1" pageScale="1" pageWidth="850" pageHeight="1100" background="#d9bfbf" math="0" shadow="0">
      <root>
        <mxCell id="0" />
        <mxCell id="1" parent="0" />
        <mxCell id="G2uY5nKdv1Brf1s3O5Bl-3" value="" style="rounded=0;whiteSpace=wrap;html=1;strokeWidth=2;fontSize=18;" vertex="1" parent="1">
          <mxGeometry x="-880" y="330" width="352" height="74" as="geometry" />
        </mxCell>
        <mxCell id="G2uY5nKdv1Brf1s3O5Bl-4" value="&lt;font style=&quot;font-size: 26px;&quot;&gt;Product&lt;/font&gt;" style="text;html=1;strokeColor=none;fillColor=none;align=center;verticalAlign=middle;whiteSpace=wrap;rounded=0;strokeWidth=2;fontSize=18;" vertex="1" parent="1">
          <mxGeometry x="-758" y="352" width="70" height="40" as="geometry" />
        </mxCell>
        <mxCell id="G2uY5nKdv1Brf1s3O5Bl-6" value="" style="endArrow=none;html=1;rounded=0;entryX=0.327;entryY=0.983;entryDx=0;entryDy=0;entryPerimeter=0;strokeWidth=2;fontSize=18;" edge="1" parent="1" target="G2uY5nKdv1Brf1s3O5Bl-7">
          <mxGeometry width="50" height="50" relative="1" as="geometry">
            <mxPoint x="-561" y="330" as="sourcePoint" />
            <mxPoint x="-508.0409123726656" y="310.71030653084335" as="targetPoint" />
          </mxGeometry>
        </mxCell>
        <mxCell id="G2uY5nKdv1Brf1s3O5Bl-7" value="" style="ellipse;whiteSpace=wrap;html=1;strokeWidth=2;fontSize=18;" vertex="1" parent="1">
          <mxGeometry x="-598" y="55" width="191" height="102.5" as="geometry" />
        </mxCell>
        <mxCell id="G2uY5nKdv1Brf1s3O5Bl-8" value="&lt;font style=&quot;font-size: 21px;&quot;&gt;Category_id&lt;/font&gt;" style="text;html=1;strokeColor=none;fillColor=none;align=center;verticalAlign=middle;whiteSpace=wrap;rounded=0;strokeWidth=2;fontSize=18;" vertex="1" parent="1">
          <mxGeometry x="-539" y="99" width="60" height="30" as="geometry" />
        </mxCell>
        <mxCell id="G2uY5nKdv1Brf1s3O5Bl-9" value="" style="endArrow=none;html=1;rounded=0;entryX=0.08;entryY=0.782;entryDx=0;entryDy=0;entryPerimeter=0;strokeWidth=2;fontSize=18;" edge="1" parent="1" target="G2uY5nKdv1Brf1s3O5Bl-10">
          <mxGeometry width="50" height="50" relative="1" as="geometry">
            <mxPoint x="-528" y="387" as="sourcePoint" />
            <mxPoint x="-458" y="354" as="targetPoint" />
          </mxGeometry>
        </mxCell>
        <mxCell id="G2uY5nKdv1Brf1s3O5Bl-10" value="" style="ellipse;whiteSpace=wrap;html=1;strokeWidth=2;fontSize=18;" vertex="1" parent="1">
          <mxGeometry x="-505" y="194" width="237" height="103" as="geometry" />
        </mxCell>
        <mxCell id="G2uY5nKdv1Brf1s3O5Bl-11" value="&lt;font style=&quot;font-size: 22px;&quot;&gt;Product_Name&lt;/font&gt;" style="text;html=1;strokeColor=none;fillColor=none;align=center;verticalAlign=middle;whiteSpace=wrap;rounded=0;strokeWidth=2;fontSize=18;" vertex="1" parent="1">
          <mxGeometry x="-416.5" y="231.5" width="60" height="28" as="geometry" />
        </mxCell>
        <mxCell id="G2uY5nKdv1Brf1s3O5Bl-12" value="&lt;u style=&quot;&quot;&gt;&lt;font style=&quot;font-size: 27px;&quot;&gt;Price&lt;/font&gt;&lt;/u&gt;" style="ellipse;whiteSpace=wrap;html=1;strokeWidth=2;fontSize=18;" vertex="1" parent="1">
          <mxGeometry x="-1166" y="128" width="209" height="74" as="geometry" />
        </mxCell>
        <mxCell id="G2uY5nKdv1Brf1s3O5Bl-16" value="" style="endArrow=none;html=1;rounded=0;strokeWidth=2;fontSize=18;exitX=0.381;exitY=0;exitDx=0;exitDy=0;exitPerimeter=0;" edge="1" parent="1" source="G2uY5nKdv1Brf1s3O5Bl-3" target="G2uY5nKdv1Brf1s3O5Bl-12">
          <mxGeometry width="50" height="50" relative="1" as="geometry">
            <mxPoint x="-648" y="359" as="sourcePoint" />
            <mxPoint x="-658.0209123726656" y="299.0003065308433" as="targetPoint" />
          </mxGeometry>
        </mxCell>
        <mxCell id="G2uY5nKdv1Brf1s3O5Bl-18" value="" style="rhombus;whiteSpace=wrap;html=1;strokeWidth=2;fontSize=18;" vertex="1" parent="1">
          <mxGeometry x="-789" y="71" width="170" height="138" as="geometry" />
        </mxCell>
        <mxCell id="G2uY5nKdv1Brf1s3O5Bl-21" value="&lt;font style=&quot;font-size: 24px;&quot;&gt;In&lt;/font&gt;" style="text;html=1;strokeColor=none;fillColor=none;align=center;verticalAlign=middle;whiteSpace=wrap;rounded=0;strokeWidth=2;fontSize=18;" vertex="1" parent="1">
          <mxGeometry x="-858" y="99.5" width="300" height="73" as="geometry" />
        </mxCell>
        <mxCell id="G2uY5nKdv1Brf1s3O5Bl-22" value="" style="rounded=0;whiteSpace=wrap;html=1;fontSize=18;" vertex="1" parent="1">
          <mxGeometry x="-880" y="-176" width="275" height="88" as="geometry" />
        </mxCell>
        <mxCell id="G2uY5nKdv1Brf1s3O5Bl-23" value="&lt;font style=&quot;font-size: 25px;&quot;&gt;Category&lt;/font&gt;" style="text;html=1;strokeColor=none;fillColor=none;align=center;verticalAlign=middle;whiteSpace=wrap;rounded=0;fontSize=18;rotation=0;" vertex="1" parent="1">
          <mxGeometry x="-764" y="-147" width="60" height="30" as="geometry" />
        </mxCell>
        <mxCell id="G2uY5nKdv1Brf1s3O5Bl-26" value="" style="ellipse;whiteSpace=wrap;html=1;fontSize=18;" vertex="1" parent="1">
          <mxGeometry x="-649" y="-407" width="297" height="135" as="geometry" />
        </mxCell>
        <mxCell id="G2uY5nKdv1Brf1s3O5Bl-28" value="&lt;u style=&quot;font-size: 27px;&quot;&gt;Category_id&lt;/u&gt;" style="text;html=1;strokeColor=none;fillColor=none;align=center;verticalAlign=middle;whiteSpace=wrap;rounded=0;fontSize=27;" vertex="1" parent="1">
          <mxGeometry x="-532.5" y="-343.5" width="60" height="30" as="geometry" />
        </mxCell>
        <mxCell id="G2uY5nKdv1Brf1s3O5Bl-29" value="" style="ellipse;whiteSpace=wrap;html=1;fontSize=18;" vertex="1" parent="1">
          <mxGeometry x="-1089" y="-385" width="286.5" height="113" as="geometry" />
        </mxCell>
        <mxCell id="G2uY5nKdv1Brf1s3O5Bl-30" value="" style="endArrow=none;html=1;rounded=0;exitX=0.25;exitY=0;exitDx=0;exitDy=0;entryX=0.59;entryY=0.982;entryDx=0;entryDy=0;fontSize=18;entryPerimeter=0;" edge="1" parent="1" source="G2uY5nKdv1Brf1s3O5Bl-22" target="G2uY5nKdv1Brf1s3O5Bl-29">
          <mxGeometry width="50" height="50" relative="1" as="geometry">
            <mxPoint x="-703" y="109" as="sourcePoint" />
            <mxPoint x="-638" y="77" as="targetPoint" />
          </mxGeometry>
        </mxCell>
        <mxCell id="G2uY5nKdv1Brf1s3O5Bl-31" value="&lt;font style=&quot;font-size: 22px;&quot;&gt;Category_Name&lt;/font&gt;" style="text;html=1;strokeColor=none;fillColor=none;align=center;verticalAlign=middle;whiteSpace=wrap;rounded=0;fontSize=18;" vertex="1" parent="1">
          <mxGeometry x="-999" y="-347.5" width="65" height="38" as="geometry" />
        </mxCell>
        <mxCell id="G2uY5nKdv1Brf1s3O5Bl-32" value="&lt;u style=&quot;font-size: 18px;&quot;&gt;Product image&lt;/u&gt;" style="ellipse;whiteSpace=wrap;html=1;strokeWidth=2;fontSize=18;" vertex="1" parent="1">
          <mxGeometry x="-1232" y="357" width="255" height="66" as="geometry" />
        </mxCell>
        <mxCell id="G2uY5nKdv1Brf1s3O5Bl-36" value="Quantity_available" style="ellipse;whiteSpace=wrap;html=1;strokeWidth=2;fontSize=18;" vertex="1" parent="1">
          <mxGeometry x="-1199" y="457" width="265" height="112" as="geometry" />
        </mxCell>
        <mxCell id="G2uY5nKdv1Brf1s3O5Bl-37" value="" style="endArrow=none;html=1;rounded=0;entryX=0.1;entryY=1;entryDx=0;entryDy=0;entryPerimeter=0;strokeWidth=2;fontSize=18;" edge="1" parent="1" source="G2uY5nKdv1Brf1s3O5Bl-36" target="G2uY5nKdv1Brf1s3O5Bl-3">
          <mxGeometry width="50" height="50" relative="1" as="geometry">
            <mxPoint x="-607.98" y="465" as="sourcePoint" />
            <mxPoint x="-658.0009123726657" y="400.0003065308433" as="targetPoint" />
          </mxGeometry>
        </mxCell>
        <mxCell id="G2uY5nKdv1Brf1s3O5Bl-39" value="Product_age" style="ellipse;whiteSpace=wrap;html=1;strokeWidth=2;fontSize=18;" vertex="1" parent="1">
          <mxGeometry x="-590" y="561" width="238" height="96" as="geometry" />
        </mxCell>
        <mxCell id="G2uY5nKdv1Brf1s3O5Bl-40" value="" style="endArrow=none;html=1;rounded=0;exitX=0.411;exitY=0.02;exitDx=0;exitDy=0;exitPerimeter=0;strokeWidth=2;fontSize=18;" edge="1" parent="1" source="G2uY5nKdv1Brf1s3O5Bl-39">
          <mxGeometry width="50" height="50" relative="1" as="geometry">
            <mxPoint x="-578" y="440" as="sourcePoint" />
            <mxPoint x="-578" y="404" as="targetPoint" />
            <Array as="points" />
          </mxGeometry>
        </mxCell>
        <mxCell id="G2uY5nKdv1Brf1s3O5Bl-42" value="Product_desc" style="ellipse;whiteSpace=wrap;html=1;strokeWidth=2;fontSize=18;" vertex="1" parent="1">
          <mxGeometry x="-467.5" y="457" width="253" height="72.5" as="geometry" />
        </mxCell>
        <mxCell id="G2uY5nKdv1Brf1s3O5Bl-43" value="" style="endArrow=none;html=1;rounded=0;entryX=0.1;entryY=1;entryDx=0;entryDy=0;entryPerimeter=0;strokeWidth=2;fontSize=18;" edge="1" parent="1" source="G2uY5nKdv1Brf1s3O5Bl-42">
          <mxGeometry width="50" height="50" relative="1" as="geometry">
            <mxPoint x="-555" y="460" as="sourcePoint" />
            <mxPoint x="-528" y="403" as="targetPoint" />
          </mxGeometry>
        </mxCell>
        <mxCell id="G2uY5nKdv1Brf1s3O5Bl-44" value="" style="endArrow=none;html=1;rounded=0;entryX=0;entryY=0.5;entryDx=0;entryDy=0;" edge="1" parent="1" target="G2uY5nKdv1Brf1s3O5Bl-45">
          <mxGeometry width="50" height="50" relative="1" as="geometry">
            <mxPoint x="-528" y="395" as="sourcePoint" />
            <mxPoint x="-328" y="395" as="targetPoint" />
          </mxGeometry>
        </mxCell>
        <mxCell id="G2uY5nKdv1Brf1s3O5Bl-45" value="" style="rhombus;whiteSpace=wrap;html=1;" vertex="1" parent="1">
          <mxGeometry x="-258" y="330" width="140" height="120" as="geometry" />
        </mxCell>
        <mxCell id="G2uY5nKdv1Brf1s3O5Bl-47" value="&lt;font style=&quot;font-size: 20px;&quot;&gt;For&lt;/font&gt;" style="text;html=1;strokeColor=none;fillColor=none;align=center;verticalAlign=middle;whiteSpace=wrap;rounded=0;" vertex="1" parent="1">
          <mxGeometry x="-223" y="369.5" width="70" height="41" as="geometry" />
        </mxCell>
        <mxCell id="G2uY5nKdv1Brf1s3O5Bl-48" value="" style="endArrow=none;html=1;rounded=0;exitX=0.5;exitY=0;exitDx=0;exitDy=0;entryX=0.5;entryY=1;entryDx=0;entryDy=0;" edge="1" parent="1" source="G2uY5nKdv1Brf1s3O5Bl-45" target="G2uY5nKdv1Brf1s3O5Bl-49">
          <mxGeometry width="50" height="50" relative="1" as="geometry">
            <mxPoint x="-303.5" y="340" as="sourcePoint" />
            <mxPoint x="-303.5" y="280" as="targetPoint" />
          </mxGeometry>
        </mxCell>
        <mxCell id="G2uY5nKdv1Brf1s3O5Bl-49" value="" style="ellipse;whiteSpace=wrap;html=1;" vertex="1" parent="1">
          <mxGeometry x="-268" y="119" width="160" height="83" as="geometry" />
        </mxCell>
        <mxCell id="G2uY5nKdv1Brf1s3O5Bl-50" value="&lt;font style=&quot;font-size: 20px;&quot;&gt;Qty&lt;/font&gt;" style="text;html=1;strokeColor=none;fillColor=none;align=center;verticalAlign=middle;whiteSpace=wrap;rounded=0;" vertex="1" parent="1">
          <mxGeometry x="-214.5" y="148.5" width="53" height="24" as="geometry" />
        </mxCell>
        <mxCell id="G2uY5nKdv1Brf1s3O5Bl-51" value="" style="endArrow=none;html=1;rounded=0;entryX=0;entryY=0.5;entryDx=0;entryDy=0;" edge="1" parent="1" target="G2uY5nKdv1Brf1s3O5Bl-53">
          <mxGeometry width="50" height="50" relative="1" as="geometry">
            <mxPoint x="-118" y="389.17" as="sourcePoint" />
            <mxPoint x="132" y="389.17" as="targetPoint" />
          </mxGeometry>
        </mxCell>
        <mxCell id="G2uY5nKdv1Brf1s3O5Bl-53" value="" style="rounded=0;whiteSpace=wrap;html=1;" vertex="1" parent="1">
          <mxGeometry x="269" y="363" width="209" height="46" as="geometry" />
        </mxCell>
        <mxCell id="G2uY5nKdv1Brf1s3O5Bl-54" value="&lt;span style=&quot;font-size: 19px;&quot;&gt;&lt;b&gt;Customer&lt;/b&gt;&lt;/span&gt;" style="text;html=1;strokeColor=none;fillColor=none;align=center;verticalAlign=middle;whiteSpace=wrap;rounded=0;" vertex="1" parent="1">
          <mxGeometry x="299" y="369" width="135" height="35" as="geometry" />
        </mxCell>
        <mxCell id="G2uY5nKdv1Brf1s3O5Bl-55" value="" style="endArrow=none;html=1;rounded=0;exitX=0.659;exitY=-0.036;exitDx=0;exitDy=0;exitPerimeter=0;" edge="1" parent="1" source="G2uY5nKdv1Brf1s3O5Bl-53">
          <mxGeometry width="50" height="50" relative="1" as="geometry">
            <mxPoint x="369" y="369" as="sourcePoint" />
            <mxPoint x="445" y="308" as="targetPoint" />
          </mxGeometry>
        </mxCell>
        <mxCell id="G2uY5nKdv1Brf1s3O5Bl-56" value="" style="endArrow=none;html=1;rounded=0;entryX=0.284;entryY=0.08;entryDx=0;entryDy=0;entryPerimeter=0;exitX=1;exitY=0.25;exitDx=0;exitDy=0;" edge="1" parent="1" source="G2uY5nKdv1Brf1s3O5Bl-53" target="G2uY5nKdv1Brf1s3O5Bl-69">
          <mxGeometry width="50" height="50" relative="1" as="geometry">
            <mxPoint x="445" y="409" as="sourcePoint" />
            <mxPoint x="546" y="435" as="targetPoint" />
          </mxGeometry>
        </mxCell>
        <mxCell id="G2uY5nKdv1Brf1s3O5Bl-58" value="" style="endArrow=none;html=1;rounded=0;" edge="1" parent="1" source="G2uY5nKdv1Brf1s3O5Bl-53" target="G2uY5nKdv1Brf1s3O5Bl-67">
          <mxGeometry width="50" height="50" relative="1" as="geometry">
            <mxPoint x="279" y="364" as="sourcePoint" />
            <mxPoint x="280" y="297" as="targetPoint" />
          </mxGeometry>
        </mxCell>
        <mxCell id="G2uY5nKdv1Brf1s3O5Bl-59" value="&lt;u&gt;&lt;font style=&quot;font-size: 18px;&quot;&gt;Customer_Name&lt;/font&gt;&lt;/u&gt;" style="ellipse;whiteSpace=wrap;html=1;" vertex="1" parent="1">
          <mxGeometry x="60" y="209" width="165" height="83" as="geometry" />
        </mxCell>
        <mxCell id="G2uY5nKdv1Brf1s3O5Bl-60" value="" style="endArrow=none;html=1;rounded=0;exitX=0.092;exitY=0;exitDx=0;exitDy=0;exitPerimeter=0;entryX=1;entryY=1;entryDx=0;entryDy=0;" edge="1" parent="1" source="G2uY5nKdv1Brf1s3O5Bl-53" target="G2uY5nKdv1Brf1s3O5Bl-59">
          <mxGeometry width="50" height="50" relative="1" as="geometry">
            <mxPoint x="199" y="395" as="sourcePoint" />
            <mxPoint x="249" y="345" as="targetPoint" />
          </mxGeometry>
        </mxCell>
        <mxCell id="G2uY5nKdv1Brf1s3O5Bl-67" value="&lt;span style=&quot;font-size: 18px;&quot;&gt;&lt;u&gt;Gender&lt;/u&gt;&lt;/span&gt;" style="ellipse;whiteSpace=wrap;html=1;" vertex="1" parent="1">
          <mxGeometry x="234" y="214" width="165" height="83" as="geometry" />
        </mxCell>
        <mxCell id="G2uY5nKdv1Brf1s3O5Bl-68" value="&lt;span style=&quot;font-size: 18px;&quot;&gt;&lt;u&gt;Customer_id&lt;/u&gt;&lt;/span&gt;" style="ellipse;whiteSpace=wrap;html=1;" vertex="1" parent="1">
          <mxGeometry x="412" y="242" width="143" height="71" as="geometry" />
        </mxCell>
        <mxCell id="G2uY5nKdv1Brf1s3O5Bl-69" value="&lt;span style=&quot;font-size: 18px;&quot;&gt;&lt;u&gt;Email&lt;/u&gt;&lt;/span&gt;" style="ellipse;whiteSpace=wrap;html=1;" vertex="1" parent="1">
          <mxGeometry x="533" y="304" width="143" height="71" as="geometry" />
        </mxCell>
        <mxCell id="G2uY5nKdv1Brf1s3O5Bl-70" value="&lt;span style=&quot;font-size: 18px;&quot;&gt;&lt;u&gt;Password&lt;/u&gt;&lt;/span&gt;" style="ellipse;whiteSpace=wrap;html=1;" vertex="1" parent="1">
          <mxGeometry x="562" y="403" width="143" height="71" as="geometry" />
        </mxCell>
        <mxCell id="G2uY5nKdv1Brf1s3O5Bl-71" value="" style="endArrow=none;html=1;rounded=0;exitX=1;exitY=0.75;exitDx=0;exitDy=0;" edge="1" parent="1" source="G2uY5nKdv1Brf1s3O5Bl-53" target="G2uY5nKdv1Brf1s3O5Bl-70">
          <mxGeometry width="50" height="50" relative="1" as="geometry">
            <mxPoint x="456" y="407" as="sourcePoint" />
            <mxPoint x="555" y="358.5" as="targetPoint" />
          </mxGeometry>
        </mxCell>
        <mxCell id="G2uY5nKdv1Brf1s3O5Bl-72" value="&lt;span style=&quot;font-size: 18px;&quot;&gt;&lt;u&gt;Ph_no.&lt;/u&gt;&lt;/span&gt;" style="ellipse;whiteSpace=wrap;html=1;" vertex="1" parent="1">
          <mxGeometry x="91" y="454.5" width="143" height="71" as="geometry" />
        </mxCell>
        <mxCell id="G2uY5nKdv1Brf1s3O5Bl-73" value="" style="endArrow=none;html=1;rounded=0;entryX=1;entryY=1;entryDx=0;entryDy=0;exitX=0.643;exitY=0.026;exitDx=0;exitDy=0;exitPerimeter=0;" edge="1" parent="1" source="G2uY5nKdv1Brf1s3O5Bl-72">
          <mxGeometry width="50" height="50" relative="1" as="geometry">
            <mxPoint x="232.14848971639913" y="456.4979729017682" as="sourcePoint" />
            <mxPoint x="269" y="404" as="targetPoint" />
          </mxGeometry>
        </mxCell>
        <mxCell id="G2uY5nKdv1Brf1s3O5Bl-74" value="&lt;span style=&quot;font-size: 18px;&quot;&gt;&lt;u&gt;Address&lt;/u&gt;&lt;/span&gt;" style="ellipse;whiteSpace=wrap;html=1;" vertex="1" parent="1">
          <mxGeometry x="451" y="465" width="176" height="76.5" as="geometry" />
        </mxCell>
        <mxCell id="G2uY5nKdv1Brf1s3O5Bl-75" value="" style="endArrow=none;html=1;rounded=0;" edge="1" parent="1">
          <mxGeometry width="50" height="50" relative="1" as="geometry">
            <mxPoint x="507.8938957072287" y="468.3678314459671" as="sourcePoint" />
            <mxPoint x="445" y="407" as="targetPoint" />
          </mxGeometry>
        </mxCell>
        <mxCell id="G2uY5nKdv1Brf1s3O5Bl-78" value="" style="rhombus;whiteSpace=wrap;html=1;" vertex="1" parent="1">
          <mxGeometry x="278.5" y="561" width="190" height="176" as="geometry" />
        </mxCell>
        <mxCell id="G2uY5nKdv1Brf1s3O5Bl-79" value="&lt;span style=&quot;font-size: 20px;&quot;&gt;Has&lt;/span&gt;" style="text;html=1;strokeColor=none;fillColor=none;align=center;verticalAlign=middle;whiteSpace=wrap;rounded=0;" vertex="1" parent="1">
          <mxGeometry x="335.5" y="628.5" width="70" height="41" as="geometry" />
        </mxCell>
        <mxCell id="G2uY5nKdv1Brf1s3O5Bl-81" value="" style="rounded=0;whiteSpace=wrap;html=1;" vertex="1" parent="1">
          <mxGeometry x="218" y="880" width="297" height="79" as="geometry" />
        </mxCell>
        <mxCell id="G2uY5nKdv1Brf1s3O5Bl-83" value="" style="endArrow=none;html=1;rounded=0;exitX=0.659;exitY=-0.036;exitDx=0;exitDy=0;exitPerimeter=0;entryX=0;entryY=1;entryDx=0;entryDy=0;" edge="1" parent="1" source="G2uY5nKdv1Brf1s3O5Bl-81" target="G2uY5nKdv1Brf1s3O5Bl-89">
          <mxGeometry width="50" height="50" relative="1" as="geometry">
            <mxPoint x="207" y="897" as="sourcePoint" />
            <mxPoint x="283" y="836" as="targetPoint" />
          </mxGeometry>
        </mxCell>
        <mxCell id="G2uY5nKdv1Brf1s3O5Bl-86" value="&lt;span style=&quot;font-size: 18px;&quot;&gt;&lt;u&gt;Cart&lt;/u&gt;&lt;/span&gt;" style="ellipse;whiteSpace=wrap;html=1;" vertex="1" parent="1">
          <mxGeometry x="-30.5" y="715" width="165" height="83" as="geometry" />
        </mxCell>
        <mxCell id="G2uY5nKdv1Brf1s3O5Bl-87" value="" style="endArrow=none;html=1;rounded=0;exitX=0.092;exitY=0;exitDx=0;exitDy=0;exitPerimeter=0;entryX=1;entryY=1;entryDx=0;entryDy=0;" edge="1" parent="1" source="G2uY5nKdv1Brf1s3O5Bl-81" target="G2uY5nKdv1Brf1s3O5Bl-86">
          <mxGeometry width="50" height="50" relative="1" as="geometry">
            <mxPoint x="37" y="923" as="sourcePoint" />
            <mxPoint x="87" y="873" as="targetPoint" />
          </mxGeometry>
        </mxCell>
        <mxCell id="G2uY5nKdv1Brf1s3O5Bl-89" value="&lt;span style=&quot;font-size: 18px;&quot;&gt;&lt;u&gt;Cart_id&lt;/u&gt;&lt;/span&gt;" style="ellipse;whiteSpace=wrap;html=1;" vertex="1" parent="1">
          <mxGeometry x="517" y="721" width="143" height="71" as="geometry" />
        </mxCell>
        <mxCell id="G2uY5nKdv1Brf1s3O5Bl-100" value="" style="endArrow=none;html=1;rounded=0;entryX=0.5;entryY=1;entryDx=0;entryDy=0;exitX=0.5;exitY=0;exitDx=0;exitDy=0;" edge="1" parent="1" source="G2uY5nKdv1Brf1s3O5Bl-81" target="G2uY5nKdv1Brf1s3O5Bl-78">
          <mxGeometry width="50" height="50" relative="1" as="geometry">
            <mxPoint x="352" y="858" as="sourcePoint" />
            <mxPoint x="182" y="737" as="targetPoint" />
          </mxGeometry>
        </mxCell>
        <mxCell id="G2uY5nKdv1Brf1s3O5Bl-101" value="&lt;b&gt;&lt;font style=&quot;font-size: 17px;&quot;&gt;Total_quantity&lt;/font&gt;&lt;/b&gt;" style="ellipse;whiteSpace=wrap;html=1;align=center;dashed=1;" vertex="1" parent="1">
          <mxGeometry x="-13" y="1004" width="223" height="110" as="geometry" />
        </mxCell>
        <mxCell id="G2uY5nKdv1Brf1s3O5Bl-102" value="" style="endArrow=none;html=1;rounded=0;exitX=0.695;exitY=0.03;exitDx=0;exitDy=0;exitPerimeter=0;entryX=0;entryY=0.75;entryDx=0;entryDy=0;" edge="1" parent="1" source="G2uY5nKdv1Brf1s3O5Bl-101" target="G2uY5nKdv1Brf1s3O5Bl-81">
          <mxGeometry width="50" height="50" relative="1" as="geometry">
            <mxPoint x="205" y="977" as="sourcePoint" />
            <mxPoint x="154" y="904" as="targetPoint" />
          </mxGeometry>
        </mxCell>
        <mxCell id="G2uY5nKdv1Brf1s3O5Bl-104" value="&lt;span style=&quot;font-size: 18px;&quot;&gt;&lt;u&gt;Total Value&lt;/u&gt;&lt;/span&gt;" style="ellipse;whiteSpace=wrap;html=1;" vertex="1" parent="1">
          <mxGeometry x="529.5" y="1043" width="143" height="71" as="geometry" />
        </mxCell>
        <mxCell id="G2uY5nKdv1Brf1s3O5Bl-105" value="" style="rhombus;whiteSpace=wrap;html=1;" vertex="1" parent="1">
          <mxGeometry x="234.5" y="1168" width="245" height="209" as="geometry" />
        </mxCell>
        <mxCell id="G2uY5nKdv1Brf1s3O5Bl-106" value="" style="endArrow=none;html=1;rounded=0;exitX=0.5;exitY=0;exitDx=0;exitDy=0;" edge="1" parent="1" source="G2uY5nKdv1Brf1s3O5Bl-105" target="G2uY5nKdv1Brf1s3O5Bl-82">
          <mxGeometry width="50" height="50" relative="1" as="geometry">
            <mxPoint x="235.5" y="1056" as="sourcePoint" />
            <mxPoint x="253" y="902" as="targetPoint" />
          </mxGeometry>
        </mxCell>
        <mxCell id="G2uY5nKdv1Brf1s3O5Bl-108" value="&lt;font style=&quot;font-size: 28px;&quot;&gt;Checkout&lt;/font&gt;" style="text;html=1;strokeColor=none;fillColor=none;align=center;verticalAlign=middle;whiteSpace=wrap;rounded=0;" vertex="1" parent="1">
          <mxGeometry x="308" y="1256" width="110" height="33" as="geometry" />
        </mxCell>
        <mxCell id="G2uY5nKdv1Brf1s3O5Bl-110" value="" style="rounded=0;whiteSpace=wrap;html=1;" vertex="1" parent="1">
          <mxGeometry x="270" y="1674" width="297" height="79" as="geometry" />
        </mxCell>
        <mxCell id="G2uY5nKdv1Brf1s3O5Bl-111" value="&lt;span style=&quot;font-size: 27px;&quot;&gt;&lt;b&gt;ORDER&lt;/b&gt;&lt;/span&gt;" style="text;html=1;strokeColor=none;fillColor=none;align=center;verticalAlign=middle;whiteSpace=wrap;rounded=0;" vertex="1" parent="1">
          <mxGeometry x="261.5" y="1664" width="264" height="99" as="geometry" />
        </mxCell>
        <mxCell id="G2uY5nKdv1Brf1s3O5Bl-112" value="" style="endArrow=none;html=1;rounded=0;exitX=0.659;exitY=-0.036;exitDx=0;exitDy=0;exitPerimeter=0;entryX=0;entryY=1;entryDx=0;entryDy=0;" edge="1" parent="1" source="G2uY5nKdv1Brf1s3O5Bl-110" target="G2uY5nKdv1Brf1s3O5Bl-115">
          <mxGeometry width="50" height="50" relative="1" as="geometry">
            <mxPoint x="334" y="1746" as="sourcePoint" />
            <mxPoint x="410" y="1685" as="targetPoint" />
          </mxGeometry>
        </mxCell>
        <mxCell id="G2uY5nKdv1Brf1s3O5Bl-113" value="&lt;u style=&quot;&quot;&gt;&lt;font style=&quot;font-size: 21px;&quot;&gt;Shipping_id&lt;/font&gt;&lt;/u&gt;" style="ellipse;whiteSpace=wrap;html=1;" vertex="1" parent="1">
          <mxGeometry x="17" y="1529" width="244.5" height="118" as="geometry" />
        </mxCell>
        <mxCell id="G2uY5nKdv1Brf1s3O5Bl-114" value="" style="endArrow=none;html=1;rounded=0;exitX=0.092;exitY=0;exitDx=0;exitDy=0;exitPerimeter=0;entryX=1;entryY=1;entryDx=0;entryDy=0;" edge="1" parent="1" source="G2uY5nKdv1Brf1s3O5Bl-110" target="G2uY5nKdv1Brf1s3O5Bl-113">
          <mxGeometry width="50" height="50" relative="1" as="geometry">
            <mxPoint x="164" y="1772" as="sourcePoint" />
            <mxPoint x="214" y="1722" as="targetPoint" />
          </mxGeometry>
        </mxCell>
        <mxCell id="G2uY5nKdv1Brf1s3O5Bl-115" value="&lt;u style=&quot;&quot;&gt;&lt;font style=&quot;font-size: 25px;&quot;&gt;date_of_order&lt;/font&gt;&lt;/u&gt;" style="ellipse;whiteSpace=wrap;html=1;" vertex="1" parent="1">
          <mxGeometry x="541" y="1430" width="247.5" height="150" as="geometry" />
        </mxCell>
        <mxCell id="G2uY5nKdv1Brf1s3O5Bl-116" value="" style="endArrow=none;html=1;rounded=0;exitX=0.313;exitY=-0.063;exitDx=0;exitDy=0;exitPerimeter=0;" edge="1" parent="1" source="G2uY5nKdv1Brf1s3O5Bl-110" target="G2uY5nKdv1Brf1s3O5Bl-105">
          <mxGeometry width="50" height="50" relative="1" as="geometry">
            <mxPoint x="143" y="1636" as="sourcePoint" />
            <mxPoint x="248" y="1551" as="targetPoint" />
          </mxGeometry>
        </mxCell>
        <mxCell id="G2uY5nKdv1Brf1s3O5Bl-118" value="" style="endArrow=none;html=1;rounded=0;entryX=1;entryY=1;entryDx=0;entryDy=0;" edge="1" parent="1">
          <mxGeometry width="50" height="50" relative="1" as="geometry">
            <mxPoint x="263.5414701840541" y="1881.2113106625548" as="sourcePoint" />
            <mxPoint x="292" y="1753" as="targetPoint" />
          </mxGeometry>
        </mxCell>
        <mxCell id="G2uY5nKdv1Brf1s3O5Bl-120" value="&lt;font style=&quot;font-size: 27px;&quot;&gt;Status&lt;/font&gt;" style="ellipse;whiteSpace=wrap;html=1;" vertex="1" parent="1">
          <mxGeometry x="677" y="1590" width="273.5" height="121" as="geometry" />
        </mxCell>
        <mxCell id="G2uY5nKdv1Brf1s3O5Bl-122" value="" style="endArrow=none;html=1;rounded=0;exitX=1;exitY=0.25;exitDx=0;exitDy=0;" edge="1" parent="1" source="G2uY5nKdv1Brf1s3O5Bl-110" target="G2uY5nKdv1Brf1s3O5Bl-120">
          <mxGeometry width="50" height="50" relative="1" as="geometry">
            <mxPoint x="567" y="1741" as="sourcePoint" />
            <mxPoint x="678" y="1628" as="targetPoint" />
          </mxGeometry>
        </mxCell>
        <mxCell id="G2uY5nKdv1Brf1s3O5Bl-123" value="&lt;span style=&quot;font-size: 27px;&quot;&gt;Customer_id&lt;/span&gt;" style="ellipse;whiteSpace=wrap;html=1;" vertex="1" parent="1">
          <mxGeometry x="633" y="1771" width="273.5" height="121" as="geometry" />
        </mxCell>
        <mxCell id="G2uY5nKdv1Brf1s3O5Bl-124" value="" style="endArrow=none;html=1;rounded=0;exitX=0;exitY=0.5;exitDx=0;exitDy=0;entryX=0;entryY=1;entryDx=0;entryDy=0;" edge="1" parent="1" source="G2uY5nKdv1Brf1s3O5Bl-123">
          <mxGeometry width="50" height="50" relative="1" as="geometry">
            <mxPoint x="456" y="1862" as="sourcePoint" />
            <mxPoint x="567" y="1749" as="targetPoint" />
          </mxGeometry>
        </mxCell>
        <mxCell id="G2uY5nKdv1Brf1s3O5Bl-125" value="" style="endArrow=none;html=1;rounded=0;entryX=0;entryY=1;entryDx=0;entryDy=0;" edge="1" parent="1">
          <mxGeometry width="50" height="50" relative="1" as="geometry">
            <mxPoint x="523" y="1870" as="sourcePoint" />
            <mxPoint x="435" y="1753" as="targetPoint" />
          </mxGeometry>
        </mxCell>
        <mxCell id="G2uY5nKdv1Brf1s3O5Bl-126" value="&lt;span style=&quot;font-size: 27px;&quot;&gt;Total Price&lt;/span&gt;" style="ellipse;whiteSpace=wrap;html=1;" vertex="1" parent="1">
          <mxGeometry x="424" y="1870" width="275" height="110" as="geometry" />
        </mxCell>
        <mxCell id="G2uY5nKdv1Brf1s3O5Bl-127" value="&lt;span style=&quot;font-size: 27px;&quot;&gt;&lt;u&gt;Order_id&lt;/u&gt;&lt;/span&gt;" style="ellipse;whiteSpace=wrap;html=1;" vertex="1" parent="1">
          <mxGeometry x="103" y="1881" width="275" height="110" as="geometry" />
        </mxCell>
        <mxCell id="G2uY5nKdv1Brf1s3O5Bl-128" value="&lt;span style=&quot;font-size: 21px;&quot;&gt;date_of_shipping&lt;/span&gt;" style="ellipse;whiteSpace=wrap;html=1;" vertex="1" parent="1">
          <mxGeometry x="-71" y="1694" width="244.5" height="118" as="geometry" />
        </mxCell>
        <mxCell id="G2uY5nKdv1Brf1s3O5Bl-131" value="" style="endArrow=none;html=1;rounded=0;entryX=0;entryY=0.5;entryDx=0;entryDy=0;" edge="1" parent="1" source="G2uY5nKdv1Brf1s3O5Bl-128" target="G2uY5nKdv1Brf1s3O5Bl-110">
          <mxGeometry width="50" height="50" relative="1" as="geometry">
            <mxPoint x="237" y="1810" as="sourcePoint" />
            <mxPoint x="287" y="1760" as="targetPoint" />
          </mxGeometry>
        </mxCell>
        <mxCell id="G2uY5nKdv1Brf1s3O5Bl-132" value="" style="endArrow=none;html=1;rounded=0;entryX=0.973;entryY=0.318;entryDx=0;entryDy=0;entryPerimeter=0;exitX=0;exitY=0.5;exitDx=0;exitDy=0;" edge="1" parent="1" source="G2uY5nKdv1Brf1s3O5Bl-3" target="G2uY5nKdv1Brf1s3O5Bl-32">
          <mxGeometry width="50" height="50" relative="1" as="geometry">
            <mxPoint x="-715" y="413" as="sourcePoint" />
            <mxPoint x="-665" y="363" as="targetPoint" />
          </mxGeometry>
        </mxCell>
        <mxCell id="G2uY5nKdv1Brf1s3O5Bl-140" style="edgeStyle=orthogonalEdgeStyle;rounded=0;orthogonalLoop=1;jettySize=auto;html=1;exitX=0.5;exitY=0;exitDx=0;exitDy=0;entryX=0.25;entryY=0;entryDx=0;entryDy=0;" edge="1" parent="1" source="G2uY5nKdv1Brf1s3O5Bl-28" target="G2uY5nKdv1Brf1s3O5Bl-28">
          <mxGeometry relative="1" as="geometry" />
        </mxCell>
        <mxCell id="G2uY5nKdv1Brf1s3O5Bl-141" value="Text" style="edgeLabel;html=1;align=center;verticalAlign=middle;resizable=0;points=[];" vertex="1" connectable="0" parent="G2uY5nKdv1Brf1s3O5Bl-140">
          <mxGeometry x="-0.0667" y="11" relative="1" as="geometry">
            <mxPoint x="-1" as="offset" />
          </mxGeometry>
        </mxCell>
        <mxCell id="G2uY5nKdv1Brf1s3O5Bl-142" value="" style="endArrow=none;html=1;rounded=0;entryX=0.633;entryY=1;entryDx=0;entryDy=0;fontSize=18;exitX=0.5;exitY=0;exitDx=0;exitDy=0;entryPerimeter=0;" edge="1" parent="1" source="G2uY5nKdv1Brf1s3O5Bl-18" target="G2uY5nKdv1Brf1s3O5Bl-22">
          <mxGeometry width="50" height="50" relative="1" as="geometry">
            <mxPoint x="-527" y="120" as="sourcePoint" />
            <mxPoint x="-651" y="-290" as="targetPoint" />
          </mxGeometry>
        </mxCell>
        <mxCell id="G2uY5nKdv1Brf1s3O5Bl-149" value="" style="endArrow=none;html=1;rounded=0;exitX=0.5;exitY=1;exitDx=0;exitDy=0;" edge="1" parent="1" source="G2uY5nKdv1Brf1s3O5Bl-18">
          <mxGeometry width="50" height="50" relative="1" as="geometry">
            <mxPoint x="-715" y="215" as="sourcePoint" />
            <mxPoint x="-704" y="330" as="targetPoint" />
          </mxGeometry>
        </mxCell>
        <mxCell id="G2uY5nKdv1Brf1s3O5Bl-151" style="edgeStyle=orthogonalEdgeStyle;rounded=0;orthogonalLoop=1;jettySize=auto;html=1;exitX=1;exitY=0.75;exitDx=0;exitDy=0;entryX=1;entryY=0.25;entryDx=0;entryDy=0;" edge="1" parent="1" source="G2uY5nKdv1Brf1s3O5Bl-11" target="G2uY5nKdv1Brf1s3O5Bl-11">
          <mxGeometry relative="1" as="geometry" />
        </mxCell>
        <mxCell id="G2uY5nKdv1Brf1s3O5Bl-155" value="" style="endArrow=none;html=1;rounded=0;entryX=0.377;entryY=1;entryDx=0;entryDy=0;entryPerimeter=0;" edge="1" parent="1" source="G2uY5nKdv1Brf1s3O5Bl-22" target="G2uY5nKdv1Brf1s3O5Bl-26">
          <mxGeometry width="50" height="50" relative="1" as="geometry">
            <mxPoint x="-715" y="6" as="sourcePoint" />
            <mxPoint x="-665" y="-44" as="targetPoint" />
          </mxGeometry>
        </mxCell>
        <mxCell id="G2uY5nKdv1Brf1s3O5Bl-167" value="" style="rhombus;whiteSpace=wrap;html=1;" vertex="1" parent="1">
          <mxGeometry x="-823" y="606" width="245" height="209" as="geometry" />
        </mxCell>
        <mxCell id="G2uY5nKdv1Brf1s3O5Bl-168" value="" style="endArrow=none;html=1;rounded=0;exitX=0.5;exitY=0;exitDx=0;exitDy=0;entryX=0.5;entryY=1;entryDx=0;entryDy=0;" edge="1" parent="1" source="G2uY5nKdv1Brf1s3O5Bl-167" target="G2uY5nKdv1Brf1s3O5Bl-3">
          <mxGeometry width="50" height="50" relative="1" as="geometry">
            <mxPoint x="-752" y="1000" as="sourcePoint" />
            <mxPoint x="-734.5" y="846" as="targetPoint" />
          </mxGeometry>
        </mxCell>
        <mxCell id="G2uY5nKdv1Brf1s3O5Bl-169" value="&lt;span style=&quot;font-size: 28px;&quot;&gt;Used For&lt;/span&gt;" style="text;html=1;strokeColor=none;fillColor=none;align=center;verticalAlign=middle;whiteSpace=wrap;rounded=0;" vertex="1" parent="1">
          <mxGeometry x="-755.5" y="701.5" width="110" height="33" as="geometry" />
        </mxCell>
        <mxCell id="G2uY5nKdv1Brf1s3O5Bl-170" value="" style="rounded=0;whiteSpace=wrap;html=1;" vertex="1" parent="1">
          <mxGeometry x="-838.5" y="1089" width="297" height="79" as="geometry" />
        </mxCell>
        <mxCell id="G2uY5nKdv1Brf1s3O5Bl-176" value="" style="endArrow=none;html=1;rounded=0;" edge="1" parent="1" target="G2uY5nKdv1Brf1s3O5Bl-167">
          <mxGeometry width="50" height="50" relative="1" as="geometry">
            <mxPoint x="-700" y="1089" as="sourcePoint" />
            <mxPoint x="-739.5" y="1495" as="targetPoint" />
          </mxGeometry>
        </mxCell>
        <mxCell id="G2uY5nKdv1Brf1s3O5Bl-178" value="&lt;span style=&quot;font-size: 27px;&quot;&gt;Type_of_Workout&lt;/span&gt;" style="ellipse;whiteSpace=wrap;html=1;" vertex="1" parent="1">
          <mxGeometry x="-562" y="929" width="273.5" height="121" as="geometry" />
        </mxCell>
        <mxCell id="G2uY5nKdv1Brf1s3O5Bl-180" value="&lt;span style=&quot;font-size: 27px;&quot;&gt;Workout_vid&lt;/span&gt;" style="ellipse;whiteSpace=wrap;html=1;" vertex="1" parent="1">
          <mxGeometry x="-532.5" y="1232" width="273.5" height="121" as="geometry" />
        </mxCell>
        <mxCell id="G2uY5nKdv1Brf1s3O5Bl-184" value="&lt;span style=&quot;font-size: 27px;&quot;&gt;&lt;u&gt;Workout_id&lt;/u&gt;&lt;/span&gt;" style="ellipse;whiteSpace=wrap;html=1;" vertex="1" parent="1">
          <mxGeometry x="-1111" y="940" width="275" height="110" as="geometry" />
        </mxCell>
        <mxCell id="G2uY5nKdv1Brf1s3O5Bl-188" value="&lt;font style=&quot;font-size: 27px;&quot;&gt;WorkOut&lt;/font&gt;" style="text;html=1;strokeColor=none;fillColor=none;align=center;verticalAlign=middle;whiteSpace=wrap;rounded=0;" vertex="1" parent="1">
          <mxGeometry x="-825" y="1114" width="242" height="30" as="geometry" />
        </mxCell>
        <mxCell id="G2uY5nKdv1Brf1s3O5Bl-190" value="" style="endArrow=none;html=1;rounded=0;entryX=0.049;entryY=0.038;entryDx=0;entryDy=0;entryPerimeter=0;" edge="1" parent="1" target="G2uY5nKdv1Brf1s3O5Bl-170">
          <mxGeometry width="50" height="50" relative="1" as="geometry">
            <mxPoint x="-902" y="1045" as="sourcePoint" />
            <mxPoint x="-1006" y="924" as="targetPoint" />
          </mxGeometry>
        </mxCell>
        <mxCell id="G2uY5nKdv1Brf1s3O5Bl-191" value="&lt;font style=&quot;font-size: 26px;&quot;&gt;Musscle_Type&lt;/font&gt;" style="ellipse;shape=doubleEllipse;margin=3;whiteSpace=wrap;html=1;align=center;" vertex="1" parent="1">
          <mxGeometry x="-1199" y="1210" width="355" height="187" as="geometry" />
        </mxCell>
        <mxCell id="G2uY5nKdv1Brf1s3O5Bl-192" value="" style="endArrow=none;html=1;rounded=0;" edge="1" parent="1" source="G2uY5nKdv1Brf1s3O5Bl-191">
          <mxGeometry relative="1" as="geometry">
            <mxPoint x="-996" y="1168" as="sourcePoint" />
            <mxPoint x="-836" y="1168" as="targetPoint" />
          </mxGeometry>
        </mxCell>
        <mxCell id="G2uY5nKdv1Brf1s3O5Bl-193" value="" style="endArrow=none;html=1;rounded=0;entryX=0;entryY=1;entryDx=0;entryDy=0;exitX=0.796;exitY=0.038;exitDx=0;exitDy=0;exitPerimeter=0;" edge="1" parent="1" source="G2uY5nKdv1Brf1s3O5Bl-170" target="G2uY5nKdv1Brf1s3O5Bl-178">
          <mxGeometry relative="1" as="geometry">
            <mxPoint x="-693" y="1133" as="sourcePoint" />
            <mxPoint x="-533" y="1133" as="targetPoint" />
          </mxGeometry>
        </mxCell>
        <mxCell id="G2uY5nKdv1Brf1s3O5Bl-194" value="" style="endArrow=none;html=1;rounded=0;exitX=0.796;exitY=0.038;exitDx=0;exitDy=0;exitPerimeter=0;" edge="1" parent="1" target="G2uY5nKdv1Brf1s3O5Bl-180">
          <mxGeometry relative="1" as="geometry">
            <mxPoint x="-552.5" y="1168" as="sourcePoint" />
            <mxPoint x="-472.5" y="1108" as="targetPoint" />
          </mxGeometry>
        </mxCell>
        <mxCell id="G2uY5nKdv1Brf1s3O5Bl-195" value="&lt;span style=&quot;font-size: 28px;&quot;&gt;Used For&lt;/span&gt;" style="text;html=1;strokeColor=none;fillColor=none;align=center;verticalAlign=middle;whiteSpace=wrap;rounded=0;" vertex="1" parent="1">
          <mxGeometry x="-749.5" y="1382.25" width="110" height="33" as="geometry" />
        </mxCell>
        <mxCell id="G2uY5nKdv1Brf1s3O5Bl-196" value="" style="rounded=0;whiteSpace=wrap;html=1;" vertex="1" parent="1">
          <mxGeometry x="-832.5" y="1769.75" width="297" height="79" as="geometry" />
        </mxCell>
        <mxCell id="G2uY5nKdv1Brf1s3O5Bl-197" value="" style="endArrow=none;html=1;rounded=0;" edge="1" parent="1">
          <mxGeometry width="50" height="50" relative="1" as="geometry">
            <mxPoint x="-694" y="1769.75" as="sourcePoint" />
            <mxPoint x="-694" y="1495.75" as="targetPoint" />
          </mxGeometry>
        </mxCell>
        <mxCell id="G2uY5nKdv1Brf1s3O5Bl-198" value="&lt;span style=&quot;font-size: 27px;&quot;&gt;&lt;u&gt;Course_id&lt;/u&gt;&lt;/span&gt;" style="ellipse;whiteSpace=wrap;html=1;" vertex="1" parent="1">
          <mxGeometry x="-556" y="1609.75" width="273.5" height="121" as="geometry" />
        </mxCell>
        <mxCell id="G2uY5nKdv1Brf1s3O5Bl-200" value="&lt;span style=&quot;font-size: 27px;&quot;&gt;&lt;u&gt;Course_desc&lt;/u&gt;&lt;/span&gt;" style="ellipse;whiteSpace=wrap;html=1;" vertex="1" parent="1">
          <mxGeometry x="-1105" y="1620.75" width="275" height="110" as="geometry" />
        </mxCell>
        <mxCell id="G2uY5nKdv1Brf1s3O5Bl-201" value="&lt;font style=&quot;font-size: 27px;&quot;&gt;WorkOut&lt;/font&gt;" style="text;html=1;strokeColor=none;fillColor=none;align=center;verticalAlign=middle;whiteSpace=wrap;rounded=0;" vertex="1" parent="1">
          <mxGeometry x="-819" y="1794.75" width="242" height="30" as="geometry" />
        </mxCell>
        <mxCell id="G2uY5nKdv1Brf1s3O5Bl-202" value="" style="endArrow=none;html=1;rounded=0;entryX=0.049;entryY=0.038;entryDx=0;entryDy=0;entryPerimeter=0;" edge="1" parent="1" target="G2uY5nKdv1Brf1s3O5Bl-196">
          <mxGeometry width="50" height="50" relative="1" as="geometry">
            <mxPoint x="-896" y="1725.75" as="sourcePoint" />
            <mxPoint x="-1000" y="1604.75" as="targetPoint" />
          </mxGeometry>
        </mxCell>
        <mxCell id="G2uY5nKdv1Brf1s3O5Bl-205" value="" style="endArrow=none;html=1;rounded=0;entryX=0;entryY=1;entryDx=0;entryDy=0;exitX=0.796;exitY=0.038;exitDx=0;exitDy=0;exitPerimeter=0;" edge="1" parent="1" source="G2uY5nKdv1Brf1s3O5Bl-196" target="G2uY5nKdv1Brf1s3O5Bl-198">
          <mxGeometry relative="1" as="geometry">
            <mxPoint x="-687" y="1813.75" as="sourcePoint" />
            <mxPoint x="-527" y="1813.75" as="targetPoint" />
          </mxGeometry>
        </mxCell>
        <mxCell id="G2uY5nKdv1Brf1s3O5Bl-207" value="" style="endArrow=none;html=1;rounded=0;exitX=0.5;exitY=0;exitDx=0;exitDy=0;" edge="1" parent="1" source="G2uY5nKdv1Brf1s3O5Bl-208">
          <mxGeometry width="50" height="50" relative="1" as="geometry">
            <mxPoint x="-695" y="1331" as="sourcePoint" />
            <mxPoint x="-695.5" y="1168" as="targetPoint" />
          </mxGeometry>
        </mxCell>
        <mxCell id="G2uY5nKdv1Brf1s3O5Bl-208" value="" style="rhombus;whiteSpace=wrap;html=1;" vertex="1" parent="1">
          <mxGeometry x="-817" y="1309" width="245" height="209" as="geometry" />
        </mxCell>
        <mxCell id="G2uY5nKdv1Brf1s3O5Bl-209" value="&lt;font style=&quot;font-size: 26px;&quot;&gt;Includes&lt;/font&gt;" style="text;html=1;strokeColor=none;fillColor=none;align=center;verticalAlign=middle;whiteSpace=wrap;rounded=0;" vertex="1" parent="1">
          <mxGeometry x="-728" y="1408" width="60" height="30" as="geometry" />
        </mxCell>
        <mxCell id="G2uY5nKdv1Brf1s3O5Bl-210" style="edgeStyle=orthogonalEdgeStyle;rounded=0;orthogonalLoop=1;jettySize=auto;html=1;entryX=1;entryY=0.25;entryDx=0;entryDy=0;" edge="1" parent="1" target="G2uY5nKdv1Brf1s3O5Bl-209">
          <mxGeometry relative="1" as="geometry">
            <mxPoint x="-682" y="1423" as="sourcePoint" />
          </mxGeometry>
        </mxCell>
        <mxCell id="G2uY5nKdv1Brf1s3O5Bl-212" value="" style="rounded=0;whiteSpace=wrap;html=1;" vertex="1" parent="1">
          <mxGeometry x="-821.5" y="2418.75" width="297" height="79" as="geometry" />
        </mxCell>
        <mxCell id="G2uY5nKdv1Brf1s3O5Bl-213" value="" style="endArrow=none;html=1;rounded=0;" edge="1" parent="1">
          <mxGeometry width="50" height="50" relative="1" as="geometry">
            <mxPoint x="-683" y="2418.75" as="sourcePoint" />
            <mxPoint x="-683" y="2144.75" as="targetPoint" />
          </mxGeometry>
        </mxCell>
        <mxCell id="G2uY5nKdv1Brf1s3O5Bl-214" value="&lt;span style=&quot;font-size: 27px;&quot;&gt;&lt;u&gt;Course_desc&lt;/u&gt;&lt;/span&gt;" style="ellipse;whiteSpace=wrap;html=1;" vertex="1" parent="1">
          <mxGeometry x="-1094" y="2269.75" width="275" height="110" as="geometry" />
        </mxCell>
        <mxCell id="G2uY5nKdv1Brf1s3O5Bl-215" value="&lt;span style=&quot;font-size: 27px;&quot;&gt;Course&lt;/span&gt;" style="text;html=1;strokeColor=none;fillColor=none;align=center;verticalAlign=middle;whiteSpace=wrap;rounded=0;" vertex="1" parent="1">
          <mxGeometry x="-808" y="2443.75" width="242" height="30" as="geometry" />
        </mxCell>
        <mxCell id="G2uY5nKdv1Brf1s3O5Bl-216" value="" style="endArrow=none;html=1;rounded=0;entryX=0.049;entryY=0.038;entryDx=0;entryDy=0;entryPerimeter=0;" edge="1" parent="1" target="G2uY5nKdv1Brf1s3O5Bl-212">
          <mxGeometry width="50" height="50" relative="1" as="geometry">
            <mxPoint x="-885" y="2374.75" as="sourcePoint" />
            <mxPoint x="-989" y="2253.75" as="targetPoint" />
          </mxGeometry>
        </mxCell>
        <mxCell id="G2uY5nKdv1Brf1s3O5Bl-217" value="" style="endArrow=none;html=1;rounded=0;exitX=0.796;exitY=0.038;exitDx=0;exitDy=0;exitPerimeter=0;" edge="1" parent="1" source="G2uY5nKdv1Brf1s3O5Bl-212">
          <mxGeometry relative="1" as="geometry">
            <mxPoint x="-676" y="2462.75" as="sourcePoint" />
            <mxPoint x="-473" y="2321" as="targetPoint" />
          </mxGeometry>
        </mxCell>
        <mxCell id="G2uY5nKdv1Brf1s3O5Bl-225" value="" style="rhombus;whiteSpace=wrap;html=1;" vertex="1" parent="1">
          <mxGeometry x="-779" y="1958" width="190" height="190" as="geometry" />
        </mxCell>
        <mxCell id="G2uY5nKdv1Brf1s3O5Bl-228" value="" style="endArrow=none;html=1;rounded=0;entryX=0.5;entryY=1;entryDx=0;entryDy=0;exitX=0.5;exitY=0;exitDx=0;exitDy=0;" edge="1" parent="1" source="G2uY5nKdv1Brf1s3O5Bl-225" target="G2uY5nKdv1Brf1s3O5Bl-196">
          <mxGeometry width="50" height="50" relative="1" as="geometry">
            <mxPoint x="-638" y="2107" as="sourcePoint" />
            <mxPoint x="-588" y="2057" as="targetPoint" />
          </mxGeometry>
        </mxCell>
        <mxCell id="G2uY5nKdv1Brf1s3O5Bl-229" value="&lt;font style=&quot;font-size: 32px;&quot;&gt;By&lt;/font&gt;" style="text;html=1;strokeColor=none;fillColor=none;align=center;verticalAlign=middle;whiteSpace=wrap;rounded=0;fontSize=32;" vertex="1" parent="1">
          <mxGeometry x="-709" y="2038" width="60" height="30" as="geometry" />
        </mxCell>
        <mxCell id="G2uY5nKdv1Brf1s3O5Bl-231" value="&lt;span style=&quot;font-size: 27px;&quot;&gt;&lt;u&gt;Course_id&lt;/u&gt;&lt;/span&gt;" style="ellipse;whiteSpace=wrap;html=1;" vertex="1" parent="1">
          <mxGeometry x="-543" y="2222" width="275" height="110" as="geometry" />
        </mxCell>
        <mxCell id="G2uY5nKdv1Brf1s3O5Bl-242" value="" style="rounded=0;whiteSpace=wrap;html=1;" vertex="1" parent="1">
          <mxGeometry x="-807.5" y="3081.75" width="297" height="79" as="geometry" />
        </mxCell>
        <mxCell id="G2uY5nKdv1Brf1s3O5Bl-243" value="" style="endArrow=none;html=1;rounded=0;entryX=0.5;entryY=1;entryDx=0;entryDy=0;" edge="1" parent="1" target="G2uY5nKdv1Brf1s3O5Bl-248">
          <mxGeometry width="50" height="50" relative="1" as="geometry">
            <mxPoint x="-669" y="3081.75" as="sourcePoint" />
            <mxPoint x="-669" y="2807.75" as="targetPoint" />
          </mxGeometry>
        </mxCell>
        <mxCell id="G2uY5nKdv1Brf1s3O5Bl-244" value="&lt;span style=&quot;font-size: 27px;&quot;&gt;Email&lt;/span&gt;" style="ellipse;whiteSpace=wrap;html=1;" vertex="1" parent="1">
          <mxGeometry x="-1080" y="2932.75" width="275" height="110" as="geometry" />
        </mxCell>
        <mxCell id="G2uY5nKdv1Brf1s3O5Bl-245" value="&lt;span style=&quot;font-size: 27px;&quot;&gt;Trainer&lt;/span&gt;" style="text;html=1;strokeColor=none;fillColor=none;align=center;verticalAlign=middle;whiteSpace=wrap;rounded=0;" vertex="1" parent="1">
          <mxGeometry x="-789" y="3106.25" width="242" height="30" as="geometry" />
        </mxCell>
        <mxCell id="G2uY5nKdv1Brf1s3O5Bl-246" value="" style="endArrow=none;html=1;rounded=0;" edge="1" parent="1">
          <mxGeometry width="50" height="50" relative="1" as="geometry">
            <mxPoint x="-871" y="3037.75" as="sourcePoint" />
            <mxPoint x="-803" y="3080" as="targetPoint" />
          </mxGeometry>
        </mxCell>
        <mxCell id="G2uY5nKdv1Brf1s3O5Bl-247" value="" style="endArrow=none;html=1;rounded=0;exitX=0.796;exitY=0.038;exitDx=0;exitDy=0;exitPerimeter=0;" edge="1" parent="1" source="G2uY5nKdv1Brf1s3O5Bl-242">
          <mxGeometry relative="1" as="geometry">
            <mxPoint x="-662" y="3125.75" as="sourcePoint" />
            <mxPoint x="-459" y="2984" as="targetPoint" />
          </mxGeometry>
        </mxCell>
        <mxCell id="G2uY5nKdv1Brf1s3O5Bl-248" value="" style="rhombus;whiteSpace=wrap;html=1;" vertex="1" parent="1">
          <mxGeometry x="-767" y="2621" width="190" height="190" as="geometry" />
        </mxCell>
        <mxCell id="G2uY5nKdv1Brf1s3O5Bl-249" value="&lt;font style=&quot;font-size: 32px;&quot;&gt;By&lt;/font&gt;" style="text;html=1;strokeColor=none;fillColor=none;align=center;verticalAlign=middle;whiteSpace=wrap;rounded=0;fontSize=32;" vertex="1" parent="1">
          <mxGeometry x="-699.5" y="2701" width="60" height="30" as="geometry" />
        </mxCell>
        <mxCell id="G2uY5nKdv1Brf1s3O5Bl-251" value="&lt;span style=&quot;font-size: 27px;&quot;&gt;&lt;u&gt;Trainer_id&lt;/u&gt;&lt;/span&gt;" style="ellipse;whiteSpace=wrap;html=1;" vertex="1" parent="1">
          <mxGeometry x="-529" y="2885" width="275" height="110" as="geometry" />
        </mxCell>
        <mxCell id="G2uY5nKdv1Brf1s3O5Bl-252" value="" style="endArrow=none;html=1;rounded=0;exitX=0.5;exitY=0;exitDx=0;exitDy=0;" edge="1" parent="1" source="G2uY5nKdv1Brf1s3O5Bl-248" target="G2uY5nKdv1Brf1s3O5Bl-212">
          <mxGeometry width="50" height="50" relative="1" as="geometry">
            <mxPoint x="-671" y="2629" as="sourcePoint" />
            <mxPoint x="-679.59" y="2497.75" as="targetPoint" />
          </mxGeometry>
        </mxCell>
        <mxCell id="G2uY5nKdv1Brf1s3O5Bl-253" value="&lt;span style=&quot;font-size: 27px;&quot;&gt;Ph_no&lt;/span&gt;" style="ellipse;whiteSpace=wrap;html=1;" vertex="1" parent="1">
          <mxGeometry x="-1080" y="3256" width="275" height="110" as="geometry" />
        </mxCell>
        <mxCell id="G2uY5nKdv1Brf1s3O5Bl-254" value="" style="endArrow=none;html=1;rounded=0;exitX=0.666;exitY=0.023;exitDx=0;exitDy=0;exitPerimeter=0;" edge="1" parent="1" source="G2uY5nKdv1Brf1s3O5Bl-253">
          <mxGeometry relative="1" as="geometry">
            <mxPoint x="-914.5" y="3261.75" as="sourcePoint" />
            <mxPoint x="-802.5" y="3160.75" as="targetPoint" />
          </mxGeometry>
        </mxCell>
        <mxCell id="G2uY5nKdv1Brf1s3O5Bl-255" value="" style="endArrow=none;html=1;rounded=0;entryX=0.5;entryY=1;entryDx=0;entryDy=0;" edge="1" parent="1" source="G2uY5nKdv1Brf1s3O5Bl-78" target="G2uY5nKdv1Brf1s3O5Bl-54">
          <mxGeometry width="50" height="50" relative="1" as="geometry">
            <mxPoint x="110" y="578" as="sourcePoint" />
            <mxPoint x="160" y="528" as="targetPoint" />
          </mxGeometry>
        </mxCell>
        <mxCell id="G2uY5nKdv1Brf1s3O5Bl-256" value="" style="endArrow=none;html=1;rounded=0;" edge="1" parent="1" source="G2uY5nKdv1Brf1s3O5Bl-104">
          <mxGeometry width="50" height="50" relative="1" as="geometry">
            <mxPoint x="396" y="977" as="sourcePoint" />
            <mxPoint x="506" y="957" as="targetPoint" />
          </mxGeometry>
        </mxCell>
        <mxCell id="G2uY5nKdv1Brf1s3O5Bl-82" value="&lt;b style=&quot;&quot;&gt;&lt;font style=&quot;font-size: 27px;&quot;&gt;Cart&lt;/font&gt;&lt;/b&gt;" style="text;html=1;strokeColor=none;fillColor=none;align=center;verticalAlign=middle;whiteSpace=wrap;rounded=0;" vertex="1" parent="1">
          <mxGeometry x="225" y="860" width="264" height="99" as="geometry" />
        </mxCell>
      </root>
    </mxGraphModel>
  </diagram>
</mxfile>
